G04*
G04 #@! TF.GenerationSoftware,Altium Limited,Altium Designer,26.8.1 (31)*
G04*
G04 Layer_Color=8421504*
G04 Board_Origin=0|0*
%FSLAX44Y44*%
%MOMM*%
G71*
G04*
G04 #@! TF.SameCoordinates,AF35CA1B-6C28-49CC-9D35-192DE98D07E6*
G04*
G04*
G04 #@! TF.FilePolarity,Positive*
G04*
G01*
G75*
%ADD18C,0.2600*%
%ADD19R,0.5500X0.5500*%
%ADD20C,0.1600*%
%ADD21R,0.4767X0.4034*%
%ADD22C,0.0050*%
%ADD23R,0.2800X0.2500*%
%ADD24R,0.6000X0.4500*%
%ADD25R,0.2800X0.3000*%
%ADD26R,0.3541X0.2627*%
%ADD27R,0.6000X0.5000*%
%ADD28R,0.3000X0.2800*%
%ADD29R,0.4500X0.3500*%
%ADD30R,0.5000X0.6600*%
G36*
X260882Y373356D02*
X262082D01*
X263882Y371056D01*
Y370355D01*
X259882Y370355D01*
X259882Y373356D01*
X260882D01*
D02*
G37*
G36*
X263881Y379754D02*
Y379056D01*
X262082Y376754D01*
X259882D01*
X259882Y379754D01*
X263881Y379754D01*
D02*
G37*
G36*
X270682Y373359D02*
X272382Y373359D01*
X272882D01*
X272882Y370359D01*
X268881Y370359D01*
Y371056D01*
X270682Y373359D01*
D02*
G37*
G36*
X272882Y379754D02*
X272882Y376754D01*
X272382D01*
X270682D01*
X268881Y379056D01*
X268881Y379754D01*
X272882Y379754D01*
D02*
G37*
D18*
X295402Y403986D02*
D03*
X299402D02*
D03*
X303402D02*
D03*
X311402D02*
D03*
X315402D02*
D03*
X295402Y399986D02*
D03*
X299402D02*
D03*
X303402D02*
D03*
X307402D02*
D03*
X311402D02*
D03*
X315402D02*
D03*
X299402Y395986D02*
D03*
X303402D02*
D03*
X311402D02*
D03*
X295402Y391986D02*
D03*
X299402D02*
D03*
X303402D02*
D03*
X307402D02*
D03*
X315402D02*
D03*
X299402Y387986D02*
D03*
X303402D02*
D03*
X307402D02*
D03*
X311402D02*
D03*
X315402D02*
D03*
X299402Y383986D02*
D03*
X311402D02*
D03*
X315402D02*
D03*
X295402Y395986D02*
D03*
X307402D02*
D03*
X315402D02*
D03*
X307402Y383986D02*
D03*
X295402D02*
D03*
X311402Y391986D02*
D03*
X303402Y383986D02*
D03*
D19*
X255650Y418058D02*
D03*
X265150D02*
D03*
Y408458D02*
D03*
X255550D02*
D03*
D20*
X326756Y371050D02*
D03*
X333756Y374650D02*
D03*
X330256Y371050D02*
D03*
X333756D02*
D03*
X326756Y374650D02*
D03*
X330256D02*
D03*
D21*
X246667Y372952D02*
D03*
X252936D02*
D03*
D22*
X270382Y378256D02*
D03*
Y371856D02*
D03*
X262382D02*
D03*
Y378256D02*
D03*
D23*
X272710Y360934D02*
D03*
X268310D02*
D03*
D24*
X283464Y371348D02*
D03*
X278892Y418008D02*
D03*
X283464Y380848D02*
D03*
X278892Y408508D02*
D03*
D25*
X245000Y386080D02*
D03*
X280416Y390398D02*
D03*
X303022Y371856D02*
D03*
X297722D02*
D03*
X285716Y390398D02*
D03*
X250300Y386080D02*
D03*
D26*
X267973Y386842D02*
D03*
X262887D02*
D03*
D27*
X293522Y416306D02*
D03*
X334010Y416560D02*
D03*
X324010D02*
D03*
X303522Y416306D02*
D03*
D28*
X314198Y369206D02*
D03*
X326402Y381586D02*
D03*
X314198Y374506D02*
D03*
X326402Y386886D02*
D03*
D29*
X310844Y354076D02*
D03*
X292764Y360329D02*
D03*
X286264D02*
D03*
X304344Y354076D02*
D03*
D30*
X271454Y396494D02*
D03*
X262454D02*
D03*
M02*
