G04*
G04 #@! TF.GenerationSoftware,Altium Limited,Altium Designer,26.8.1 (31)*
G04*
G04 Layer_Color=65535*
G04 Board_Origin=0|0*
%FSLAX44Y44*%
%MOMM*%
G71*
G04*
G04 #@! TF.SameCoordinates,AF35CA1B-6C28-49CC-9D35-192DE98D07E6*
G04*
G04*
G04 #@! TF.FilePolarity,Positive*
G04*
G01*
G75*
%ADD10C,0.2500*%
%ADD11C,0.1000*%
%ADD12C,0.0600*%
%ADD13C,0.2000*%
%ADD14C,0.1500*%
%ADD15C,0.1300*%
%ADD16C,0.2540*%
%ADD17C,0.0508*%
G36*
X259351Y408507D02*
X261601Y410757D01*
Y406257D01*
X259351Y408507D01*
D02*
G37*
D10*
X326402Y384236D02*
G03*
X326402Y384236I-1250J0D01*
G01*
X281010Y360934D02*
G03*
X281010Y360934I-1250J0D01*
G01*
D11*
X334256Y382150D02*
G03*
X334256Y382150I-500J0D01*
G01*
X272082Y366956D02*
G03*
X272082Y366956I-200J0D01*
G01*
D12*
X335556Y376350D02*
G03*
X335556Y376350I-300J0D01*
G01*
X253150Y420758D02*
G03*
X253150Y420758I-300J0D01*
G01*
X271682Y370056D02*
G03*
X271682Y370056I-300J0D01*
G01*
D13*
X321197Y376731D02*
Y411241D01*
X289607D02*
X321197D01*
X289607Y376731D02*
Y411241D01*
Y376731D02*
X321197Y376731D01*
X308948Y368706D02*
Y375006D01*
X319448Y368706D02*
Y375006D01*
X260954Y403744D02*
X272954D01*
X260954Y389077D02*
X272954D01*
X321152Y381086D02*
Y387386D01*
X331652Y381086D02*
Y387386D01*
X279916Y385148D02*
X286216D01*
X279916Y395648D02*
X286216D01*
X297222Y377106D02*
X303522D01*
X297222Y366606D02*
X303522D01*
X261117Y381192D02*
X269743D01*
X261117Y392492D02*
X269743D01*
X244500Y391330D02*
X250800D01*
X244500Y380830D02*
X250800D01*
X289964Y370098D02*
Y382098D01*
X277114Y370098D02*
Y382098D01*
X272392Y407258D02*
Y419258D01*
X285242Y407258D02*
Y419258D01*
X244284Y378969D02*
X255319D01*
X244284Y366935D02*
X255319D01*
X266510Y355934D02*
X274510D01*
X266510Y365934D02*
X274510D01*
D14*
X336056Y377150D02*
X336056Y368550D01*
X324456Y377150D02*
X336056D01*
X324456D02*
X324456Y368550D01*
X336056D01*
X259382Y368456D02*
X273382D01*
Y370056D01*
X259382Y381656D02*
X273382D01*
Y380056D02*
Y381656D01*
Y373556D02*
Y376556D01*
X259382Y380056D02*
Y381656D01*
Y373556D02*
Y376556D01*
Y368456D02*
Y370056D01*
D15*
X249350Y424258D02*
X255350D01*
X249350Y418758D02*
Y424258D01*
X269350Y404258D02*
Y422258D01*
X251350Y404258D02*
X269350D01*
X251350D02*
Y422258D01*
X269350D01*
D16*
X-41976Y373639D02*
Y386335D01*
X-44515Y388874D01*
X-49594D01*
X-52133Y386335D01*
Y373639D01*
X-57211Y388874D02*
X-62289D01*
X-59750D01*
Y373639D01*
X-57211Y376178D01*
X326136Y400808D02*
X336293Y390651D01*
X326136D02*
X336293Y400808D01*
X326136Y395729D02*
X336293D01*
X331214Y390651D02*
Y400808D01*
X284734Y371602D02*
Y386837D01*
X292351D01*
X294891Y384298D01*
Y379220D01*
X292351Y376680D01*
X284734D01*
X289812D02*
X294891Y371602D01*
X299969Y384298D02*
X302508Y386837D01*
X307587D01*
X310126Y384298D01*
Y381759D01*
X307587Y379220D01*
X305047D01*
X307587D01*
X310126Y376680D01*
Y374141D01*
X307587Y371602D01*
X302508D01*
X299969Y374141D01*
X260604Y427477D02*
Y412242D01*
X270761D01*
X275839D02*
X280917D01*
X278378D01*
Y427477D01*
X275839Y424938D01*
X646318Y369315D02*
X648858Y371854D01*
Y376933D01*
X646318Y379472D01*
X636162D01*
X633623Y376933D01*
Y371854D01*
X636162Y369315D01*
Y364237D02*
X633623Y361698D01*
Y356619D01*
X636162Y354080D01*
X646318D01*
X648858Y356619D01*
Y361698D01*
X646318Y364237D01*
X643779D01*
X641240Y361698D01*
Y354080D01*
X618236Y452624D02*
X628393Y442467D01*
X618236D02*
X628393Y452624D01*
X618236Y447546D02*
X628393D01*
X623314Y442467D02*
Y452624D01*
X643628Y439928D02*
X633471D01*
X643628Y450085D01*
Y452624D01*
X641089Y455163D01*
X636010D01*
X633471Y452624D01*
X608458Y317298D02*
X618614Y327454D01*
Y317298D02*
X608458Y327454D01*
X613536Y317298D02*
Y327454D01*
X618614Y322376D02*
X608458D01*
X670000Y342646D02*
Y357881D01*
X677617D01*
X680157Y355342D01*
Y350263D01*
X677617Y347724D01*
X670000D01*
X675078D02*
X680157Y342646D01*
X695392D02*
X685235D01*
X695392Y352803D01*
Y355342D01*
X692853Y357881D01*
X687774D01*
X685235Y355342D01*
X321564Y445003D02*
Y429768D01*
X329182D01*
X331721Y432307D01*
Y442464D01*
X329182Y445003D01*
X321564D01*
X336799Y442464D02*
X339338Y445003D01*
X344417D01*
X346956Y442464D01*
Y439925D01*
X344417Y437385D01*
X341877D01*
X344417D01*
X346956Y434846D01*
Y432307D01*
X344417Y429768D01*
X339338D01*
X336799Y432307D01*
X658186Y421889D02*
Y406654D01*
X665804D01*
X668343Y409193D01*
Y419350D01*
X665804Y421889D01*
X658186D01*
X683578Y406654D02*
X673421D01*
X683578Y416811D01*
Y419350D01*
X681039Y421889D01*
X675960D01*
X673421Y419350D01*
X578361Y340358D02*
Y325122D01*
X585979D01*
X588518Y327662D01*
Y337818D01*
X585979Y340358D01*
X578361D01*
X593596Y325122D02*
X598675D01*
X596136D01*
Y340358D01*
X593596Y337818D01*
X-120648Y490729D02*
X-123188Y488190D01*
Y483111D01*
X-120648Y480572D01*
X-110492D01*
X-107952Y483111D01*
Y488190D01*
X-110492Y490729D01*
X-123188Y495807D02*
Y505964D01*
X-120648D01*
X-110492Y495807D01*
X-107952D01*
X-59179Y368448D02*
X-56639Y365909D01*
X-51561D01*
X-49022Y368448D01*
Y378605D01*
X-51561Y381144D01*
X-56639D01*
X-59179Y378605D01*
X-74414Y365909D02*
X-69335Y368448D01*
X-64257Y373526D01*
Y378605D01*
X-66796Y381144D01*
X-71875D01*
X-74414Y378605D01*
Y376066D01*
X-71875Y373526D01*
X-64257D01*
X249650Y668275D02*
X247111Y665736D01*
Y660657D01*
X249650Y658118D01*
X259806D01*
X262346Y660657D01*
Y665736D01*
X259806Y668275D01*
X247111Y683510D02*
Y673353D01*
X254728D01*
X252189Y678431D01*
Y680971D01*
X254728Y683510D01*
X259806D01*
X262346Y680971D01*
Y675892D01*
X259806Y673353D01*
X333898Y598677D02*
X336437Y601216D01*
Y606295D01*
X333898Y608834D01*
X323742D01*
X321203Y606295D01*
Y601216D01*
X323742Y598677D01*
X321203Y585981D02*
X336437D01*
X328820Y593599D01*
Y583442D01*
X162559Y719762D02*
X165098Y717223D01*
X170177D01*
X172716Y719762D01*
Y729918D01*
X170177Y732458D01*
X165098D01*
X162559Y729918D01*
X157481Y719762D02*
X154942Y717223D01*
X149863D01*
X147324Y719762D01*
Y722301D01*
X149863Y724840D01*
X152402D01*
X149863D01*
X147324Y727379D01*
Y729918D01*
X149863Y732458D01*
X154942D01*
X157481Y729918D01*
D17*
X308668Y723038D02*
X307821Y722192D01*
Y720499D01*
X308668Y719652D01*
X312053D01*
X312900Y720499D01*
Y722192D01*
X312053Y723038D01*
X308668Y724731D02*
X307821Y725577D01*
Y727270D01*
X308668Y728116D01*
X309514D01*
X310361Y727270D01*
X311207Y728116D01*
X312053D01*
X312900Y727270D01*
Y725577D01*
X312053Y724731D01*
X311207D01*
X310361Y725577D01*
X309514Y724731D01*
X308668D01*
X310361Y725577D02*
Y727270D01*
X588838Y362707D02*
X587992Y363553D01*
X586299D01*
X585453Y362707D01*
Y359321D01*
X586299Y358475D01*
X587992D01*
X588838Y359321D01*
X593917Y358475D02*
X590531D01*
X593917Y361860D01*
Y362707D01*
X593070Y363553D01*
X591377D01*
X590531Y362707D01*
X583788Y359095D02*
X582942Y358248D01*
Y356556D01*
X583788Y355709D01*
X587174D01*
X588020Y356556D01*
Y358248D01*
X587174Y359095D01*
X588020Y360788D02*
Y362480D01*
Y361634D01*
X582942D01*
X583788Y360788D01*
M02*
