G04*
G04 #@! TF.GenerationSoftware,Altium Limited,Altium Designer,26.8.1 (31)*
G04*
G04 Layer_Physical_Order=1*
G04 Layer_Color=255*
G04 Board_Origin=0|0*
%FSLAX44Y44*%
%MOMM*%
G71*
G04*
G04 #@! TF.SameCoordinates,AF35CA1B-6C28-49CC-9D35-192DE98D07E6*
G04*
G04*
G04 #@! TF.FilePolarity,Positive*
G04*
G01*
G75*
%ADD16C,0.2540*%
%ADD18C,0.2600*%
%ADD19R,0.5500X0.5500*%
%ADD20C,0.1600*%
%ADD21R,0.4767X0.4034*%
%ADD22C,0.0050*%
%ADD23R,0.2800X0.2500*%
%ADD24R,0.6000X0.4500*%
%ADD25R,0.2800X0.3000*%
%ADD26R,0.3541X0.2627*%
%ADD27R,0.6000X0.5000*%
%ADD28R,0.3000X0.2800*%
%ADD29R,0.4500X0.3500*%
%ADD30R,0.5000X0.6600*%
G04:AMPARAMS|DCode=31|XSize=1mm|YSize=1.6mm|CornerRadius=0.5mm|HoleSize=0mm|Usage=FLASHONLY|Rotation=0.000|XOffset=0mm|YOffset=0mm|HoleType=Round|Shape=RoundedRectangle|*
%AMROUNDEDRECTD31*
21,1,1.0000,0.6000,0,0,0.0*
21,1,0.0000,1.6000,0,0,0.0*
1,1,1.0000,0.0000,-0.3000*
1,1,1.0000,0.0000,-0.3000*
1,1,1.0000,0.0000,0.3000*
1,1,1.0000,0.0000,0.3000*
%
%ADD31ROUNDEDRECTD31*%
G04:AMPARAMS|DCode=32|XSize=1mm|YSize=2.1mm|CornerRadius=0.5mm|HoleSize=0mm|Usage=FLASHONLY|Rotation=0.000|XOffset=0mm|YOffset=0mm|HoleType=Round|Shape=RoundedRectangle|*
%AMROUNDEDRECTD32*
21,1,1.0000,1.1000,0,0,0.0*
21,1,0.0000,2.1000,0,0,0.0*
1,1,1.0000,0.0000,-0.5500*
1,1,1.0000,0.0000,-0.5500*
1,1,1.0000,0.0000,0.5500*
1,1,1.0000,0.0000,0.5500*
%
%ADD32ROUNDEDRECTD32*%
%ADD33C,0.6500*%
%ADD34C,1.2700*%
%ADD35C,0.3048*%
%ADD36C,0.2540*%
%ADD37C,0.1270*%
%ADD38C,0.1016*%
%ADD39C,0.1524*%
%ADD40C,0.3810*%
%ADD41C,0.2772*%
G36*
X333986Y424272D02*
X334033Y422327D01*
X333323Y421600D01*
X328470D01*
Y417830D01*
X334010D01*
Y415290D01*
X328470D01*
Y411520D01*
X334291D01*
X334391Y407350D01*
X333613Y406696D01*
X332486Y406921D01*
X330324Y406491D01*
X328492Y405266D01*
X327267Y403434D01*
X326838Y401272D01*
Y395272D01*
X327267Y393110D01*
X328492Y391278D01*
X330324Y390053D01*
X332486Y389623D01*
X333792Y389883D01*
X334829Y389053D01*
X335075Y378735D01*
X335026Y378698D01*
Y374650D01*
X332486D01*
Y377739D01*
X331864Y377481D01*
X330924Y376542D01*
X330737Y376090D01*
X329639Y375789D01*
X329125Y376030D01*
X328448Y376708D01*
X328837Y377646D01*
X330442D01*
Y380316D01*
X326402D01*
Y382856D01*
X330442D01*
Y385526D01*
X328156D01*
Y388540D01*
X326981D01*
X322369Y393152D01*
X321202Y393636D01*
X320036Y393152D01*
X319380Y393376D01*
X318906Y394411D01*
X319032Y394716D01*
X315402D01*
Y397256D01*
X319032D01*
X318657Y398161D01*
X317577Y399241D01*
X316893Y399525D01*
X316956Y399677D01*
Y400295D01*
X316719Y400866D01*
X316282Y401303D01*
X315983Y401427D01*
X316062Y402479D01*
X316083Y402483D01*
X316626Y402845D01*
X317971Y404191D01*
X318333Y404733D01*
X318461Y405373D01*
Y412180D01*
X318948Y412667D01*
X319310Y413209D01*
X319438Y413849D01*
Y415191D01*
X320454Y415732D01*
X320756Y415529D01*
Y413806D01*
X327264D01*
Y419314D01*
X323869D01*
X321687Y421496D01*
X320973Y421973D01*
X320708Y422026D01*
X319780Y422954D01*
X318473Y423496D01*
X317058D01*
X315751Y422954D01*
X314781Y421984D01*
X313811Y422954D01*
X312504Y423496D01*
X311089D01*
X309782Y422954D01*
X308969Y422141D01*
X307656D01*
X306813Y421973D01*
X306813Y421973D01*
X306813D01*
X306099Y421496D01*
X306099Y421496D01*
X303663Y419060D01*
X300268D01*
Y413552D01*
X300378D01*
X300799Y412536D01*
X300476Y412212D01*
X300468Y412194D01*
X299251Y411911D01*
X299062Y412077D01*
Y415036D01*
X287982D01*
Y411266D01*
X289492D01*
X289694Y410250D01*
X289556Y410193D01*
X288627Y409264D01*
X288124Y408050D01*
Y406736D01*
X288627Y405523D01*
X289556Y404594D01*
X290769Y404091D01*
X292083D01*
X292233Y404154D01*
X292383Y404004D01*
X293496Y403543D01*
X294219Y402820D01*
X294478Y402713D01*
X294522Y402669D01*
X294535Y402663D01*
X294333Y401647D01*
X284675D01*
X284105Y402216D01*
Y403415D01*
X285265Y404575D01*
X285749Y405742D01*
Y410706D01*
X285265Y411873D01*
X284804Y412335D01*
X284432Y413218D01*
X284432D01*
X284432Y413218D01*
Y416738D01*
X278892D01*
X273352D01*
Y413932D01*
X271107D01*
X270440Y414208D01*
Y416788D01*
X265150D01*
Y418058D01*
X263880D01*
Y423348D01*
X259860D01*
Y418524D01*
X258844Y417981D01*
X258654Y418108D01*
Y421062D01*
X252646D01*
Y415054D01*
X256321D01*
X259140Y412235D01*
X258477Y411462D01*
X252546D01*
Y405454D01*
X253900D01*
Y387730D01*
X251954D01*
Y387834D01*
X248940D01*
Y390120D01*
X248940Y390120D01*
X248940D01*
X249490Y390884D01*
X250080Y391278D01*
X251304Y393110D01*
X251734Y395272D01*
Y401272D01*
X251304Y403434D01*
X250080Y405266D01*
X248248Y406491D01*
X246086Y406921D01*
X244390Y406583D01*
X243381Y407256D01*
X243562Y425288D01*
X286488D01*
X286742Y425542D01*
X333986Y424272D01*
D02*
G37*
G36*
X319755Y378272D02*
Y376737D01*
X320037Y376057D01*
X324918Y371176D01*
X325365Y370990D01*
X325702Y370654D01*
Y370613D01*
X326319Y369996D01*
X327193D01*
X327810Y370613D01*
X328826Y370752D01*
X329202Y370613D01*
X329819Y369996D01*
X330693D01*
X331310Y370613D01*
X332326Y370940D01*
X332702Y370735D01*
Y370613D01*
X333319Y369996D01*
X333802D01*
X334361Y369437D01*
X334944Y369196D01*
X335304D01*
X335336Y367860D01*
X334334Y367253D01*
X332486Y367621D01*
X330324Y367191D01*
X328492Y365966D01*
X327267Y364134D01*
X326838Y361972D01*
Y350972D01*
X326884Y350739D01*
X326239Y349954D01*
X322264D01*
X317252Y354966D01*
X317673Y355982D01*
X319338D01*
X321466Y356864D01*
X323094Y358492D01*
X323976Y360620D01*
Y362924D01*
X323094Y365052D01*
X321466Y366681D01*
X319338Y367562D01*
X318238D01*
Y367936D01*
X314198D01*
Y369859D01*
X315431D01*
X316015Y370101D01*
X316390Y370476D01*
X318238D01*
Y373146D01*
X316725D01*
X315952Y373919D01*
Y376160D01*
X315952Y376160D01*
X315952D01*
X316464Y376947D01*
X316594Y377077D01*
X317097Y378291D01*
Y379493D01*
X317381Y379722D01*
X318036Y379992D01*
X319755Y378272D01*
D02*
G37*
G36*
X263882Y371056D02*
Y370355D01*
X259882Y370355D01*
X259882Y373356D01*
X262082D01*
X263882Y371056D01*
D02*
G37*
G36*
X259574Y402101D02*
Y397724D01*
X259574Y397724D01*
X259574Y397724D01*
X259700Y397420D01*
Y392940D01*
X265208D01*
Y397715D01*
X266303Y398810D01*
X267465D01*
X267684Y398901D01*
X268700Y398222D01*
Y392940D01*
X271875D01*
X275559Y389255D01*
Y386353D01*
X276043Y385187D01*
X280210Y381019D01*
Y378344D01*
X285551D01*
X286819Y377077D01*
X286430Y376138D01*
X284734D01*
Y372618D01*
X289004D01*
Y373564D01*
X289943Y373953D01*
X292623Y371273D01*
X293206Y371031D01*
X296068D01*
Y370102D01*
X299082D01*
Y367816D01*
X301752D01*
Y371856D01*
X303022D01*
Y373126D01*
X306962D01*
Y375896D01*
X304156D01*
X303767Y376835D01*
X303985Y377053D01*
X304094Y377316D01*
X304803Y377686D01*
X305243Y377724D01*
X306070Y377381D01*
Y381254D01*
X308610D01*
Y377381D01*
X309642Y377809D01*
X310806Y377536D01*
X310996Y377077D01*
X311924Y376148D01*
X312444Y375933D01*
Y373146D01*
X310158D01*
Y365266D01*
X311063D01*
Y359164D01*
X310294Y358366D01*
X308095D01*
Y359145D01*
X307554Y360452D01*
X306554Y361452D01*
X305247Y361994D01*
X303832D01*
X302525Y361452D01*
X301525Y360452D01*
X300983Y359145D01*
Y357730D01*
X301333Y356886D01*
X301525Y356423D01*
X301633Y356305D01*
X301840Y356080D01*
X301840Y356080D01*
Y352072D01*
X306054D01*
Y349954D01*
X252333D01*
X251688Y350739D01*
X251734Y350972D01*
Y361972D01*
X251304Y364134D01*
X250080Y365966D01*
X248248Y367191D01*
X247300Y367379D01*
X247400Y368395D01*
X251591D01*
Y369842D01*
X252607Y370463D01*
X253226Y370206D01*
X260732D01*
Y368832D01*
X260837Y368578D01*
X260159Y367562D01*
X259234D01*
X257106Y366681D01*
X255478Y365052D01*
X254596Y362924D01*
Y360620D01*
X255478Y358492D01*
X257106Y356864D01*
X259234Y355982D01*
X261119D01*
Y355140D01*
X261660Y353833D01*
X262660Y352833D01*
X263967Y352291D01*
X265382D01*
X266689Y352833D01*
X267689Y353833D01*
X268231Y355140D01*
Y356352D01*
X268491Y356734D01*
X269086Y357144D01*
X271440D01*
Y360934D01*
Y364724D01*
X269514D01*
X269346Y365129D01*
X264477Y369998D01*
X264032Y370183D01*
Y371856D01*
X263548Y373022D01*
X262382Y373506D01*
X255574D01*
Y375223D01*
X251591D01*
Y377509D01*
X247938D01*
Y372952D01*
X245397D01*
Y377509D01*
X243803D01*
X243088Y378231D01*
X243127Y382040D01*
X243730D01*
Y386080D01*
X246270D01*
Y382040D01*
X248940D01*
Y384326D01*
X251954D01*
Y384430D01*
X261668D01*
X261694Y384413D01*
Y382916D01*
X262177Y381749D01*
X263755Y380171D01*
Y379876D01*
X263755Y379876D01*
X263755Y379876D01*
X263805Y379754D01*
X263881D01*
Y379572D01*
X264004Y379275D01*
X264238Y378709D01*
X264238Y378709D01*
X264238Y378709D01*
X269733Y373215D01*
Y372592D01*
X268664Y371225D01*
X268640Y371139D01*
X268606Y371056D01*
X268606Y371055D01*
X268606Y370359D01*
X268606Y370359D01*
X268686Y370164D01*
X268686Y370164D01*
X268880Y370084D01*
X268881Y370084D01*
X270092Y370084D01*
X270216Y369785D01*
X271382Y369302D01*
X272549Y369785D01*
X272673Y370084D01*
X272882Y370084D01*
X272882Y370084D01*
X273076Y370164D01*
X273157Y370359D01*
X273157Y370359D01*
X273157Y370986D01*
X273157Y373359D01*
X273076Y373553D01*
X273032Y373899D01*
X272783Y374499D01*
X272549Y375065D01*
X272401Y375711D01*
X272882Y376479D01*
X272882Y376479D01*
X273076Y376559D01*
X273157Y376754D01*
X273157Y376754D01*
X273157Y377381D01*
X273157Y379754D01*
X273076Y379949D01*
X272882Y380029D01*
X272236D01*
X271835Y380430D01*
X271652Y380506D01*
Y378256D01*
X269358D01*
X269112Y378502D01*
X269933Y380821D01*
X269872D01*
X268929Y380430D01*
X268207Y379709D01*
X267955Y379659D01*
X267054Y380559D01*
Y380855D01*
X266571Y382021D01*
X266542Y382050D01*
X266703Y382437D01*
Y386842D01*
Y390696D01*
X263662D01*
Y389430D01*
X263344Y388492D01*
X262430D01*
X262232Y388410D01*
X260862D01*
Y387730D01*
X257199D01*
Y403148D01*
X258138Y403537D01*
X259574Y402101D01*
D02*
G37*
%LPC*%
G36*
X270440Y423348D02*
X266420D01*
Y419328D01*
X270440D01*
Y423348D01*
D02*
G37*
G36*
X284432Y422798D02*
X280162D01*
Y419278D01*
X284432D01*
Y422798D01*
D02*
G37*
G36*
X277622D02*
X273352D01*
Y419278D01*
X277622D01*
Y422798D01*
D02*
G37*
G36*
X299062Y421346D02*
X294792D01*
Y417576D01*
X299062D01*
Y421346D01*
D02*
G37*
G36*
X292252D02*
X287982D01*
Y417576D01*
X292252D01*
Y421346D01*
D02*
G37*
G36*
X272284Y390696D02*
X269243D01*
Y388112D01*
X272284D01*
Y390696D01*
D02*
G37*
G36*
Y385572D02*
X269243D01*
Y382988D01*
X272284D01*
Y385572D01*
D02*
G37*
G36*
X282194Y376138D02*
X277924D01*
Y372618D01*
X282194D01*
Y376138D01*
D02*
G37*
G36*
X306962Y370586D02*
X304292D01*
Y367816D01*
X306962D01*
Y370586D01*
D02*
G37*
G36*
X289004Y370078D02*
X284734D01*
Y366558D01*
X289004D01*
Y370078D01*
D02*
G37*
G36*
X282194D02*
X277924D01*
Y366558D01*
X282194D01*
Y370078D01*
D02*
G37*
G36*
X297554Y364619D02*
X294034D01*
Y361599D01*
X297554D01*
Y364619D01*
D02*
G37*
G36*
Y359059D02*
X294034D01*
Y356039D01*
X297554D01*
Y359059D01*
D02*
G37*
G36*
X276650Y364724D02*
X273980D01*
Y360934D01*
Y357144D01*
X275531D01*
X276471Y356204D01*
X277778Y355663D01*
X279192D01*
X280499Y356204D01*
X281500Y357205D01*
X282041Y358512D01*
Y358922D01*
X283760D01*
Y358325D01*
X287974D01*
Y356039D01*
X291494D01*
Y360329D01*
Y364619D01*
X287974D01*
Y362333D01*
X283760D01*
Y362221D01*
X280512D01*
X280499Y362234D01*
X279192Y362775D01*
X277778D01*
X277495Y362658D01*
X276650Y363222D01*
Y364724D01*
D02*
G37*
%LPD*%
G36*
X272882Y376754D02*
X270682D01*
X268881Y379056D01*
X268881Y379754D01*
X272882Y379754D01*
X272882Y376754D01*
D02*
G37*
G36*
X272882Y370359D02*
X268881Y370359D01*
Y371056D01*
X270682Y373359D01*
X272382Y373359D01*
X272882D01*
X272882Y370359D01*
D02*
G37*
D16*
X255650Y418058D02*
X260976Y412732D01*
X295390Y399997D02*
X295402Y399986D01*
X270020Y412732D02*
X270470Y412282D01*
X283435Y399997D02*
X295390D01*
X270470Y412282D02*
X282523D01*
X260976Y412732D02*
X270020D01*
X282523Y412282D02*
X284099Y410706D01*
Y405742D02*
Y410706D01*
X281947Y401485D02*
X283435Y399997D01*
X281947Y401485D02*
Y403590D01*
X284099Y405742D01*
X295386Y403986D02*
X295402D01*
X293550Y405170D02*
X294202D01*
X295386Y403986D01*
X291426Y407294D02*
X293550Y405170D01*
X291426Y407294D02*
Y407393D01*
X297941Y408133D02*
Y408322D01*
X299391Y405216D02*
Y406683D01*
X297941Y408133D02*
X299391Y406683D01*
X295759Y410504D02*
X297941Y408322D01*
X228092Y400710D02*
X229487D01*
X237272Y392925D01*
Y391626D02*
Y392925D01*
Y391626D02*
X242437Y386462D01*
X244586D01*
X307390Y383975D02*
X307402Y383986D01*
X307390Y381305D02*
Y383975D01*
X307340Y381254D02*
X307390Y381305D01*
X271454Y395694D02*
Y396494D01*
X282714Y380848D02*
X283464D01*
X277209Y386353D02*
X282714Y380848D01*
X277209Y386353D02*
Y389939D01*
X271454Y395694D02*
X277209Y389939D01*
X303275Y410205D02*
X303402Y410078D01*
Y403986D02*
Y410078D01*
X303275Y410205D02*
Y410342D01*
X285716Y390298D02*
Y390498D01*
Y390298D02*
Y390398D01*
X274442Y407162D02*
X280670D01*
X272954Y405674D02*
X274442Y407162D01*
X272954Y401318D02*
Y405674D01*
Y401318D02*
X274896D01*
X285716Y390498D01*
X268323Y401318D02*
X272954D01*
X267465Y400460D02*
X268323Y401318D01*
X261224Y397724D02*
Y402784D01*
X262454Y397294D02*
X265620Y400460D01*
X255550Y408458D02*
X261224Y402784D01*
X265620Y400460D02*
X267465D01*
X262454Y396494D02*
Y397294D01*
X261224Y397724D02*
X262454Y396494D01*
X265405Y379876D02*
Y380855D01*
X263344Y382916D02*
X265405Y380855D01*
X271382Y370951D02*
Y373899D01*
X265405Y379876D02*
X271382Y373899D01*
X262430Y386842D02*
X263344D01*
Y382916D02*
Y386842D01*
X255550Y386080D02*
Y408458D01*
X261668Y386080D02*
X262430Y386842D01*
X250300Y386080D02*
X255550D01*
X261668D01*
X321202Y391986D02*
X326302Y386886D01*
X326402D01*
X291592Y391790D02*
X291730D01*
X291914Y391975D01*
X295390D01*
X295402Y391986D01*
X257353Y339547D02*
X258729Y338171D01*
X263809D01*
X263906Y338074D01*
X228092Y339547D02*
X257353D01*
X312212Y340360D02*
X312350D01*
X309926Y338074D02*
X312212Y340360D01*
X263906Y338074D02*
X309926D01*
X32234Y3083584D02*
X32258Y3083560D01*
X32222Y3083584D02*
X32234D01*
X278485Y359219D02*
X278623D01*
X279975Y360572D01*
X286264D01*
X304442Y358340D02*
X304539Y358438D01*
X304442Y354174D02*
Y358340D01*
X304344Y354076D02*
X304442Y354174D01*
X268180Y359490D02*
Y363962D01*
X264675Y355985D02*
X268180Y359490D01*
X264675Y355847D02*
Y355985D01*
X262382Y368832D02*
Y371856D01*
X253226D02*
X262382D01*
Y368832D02*
X263310D01*
X252640Y372442D02*
X253226Y371856D01*
X263310Y368832D02*
X268180Y363962D01*
X228790Y396558D02*
X229870Y395478D01*
X227584Y396558D02*
X228790D01*
X2301240Y111760D02*
Y118110D01*
X2297430Y121920D02*
X2301240Y118110D01*
D18*
X295402Y403986D02*
D03*
X299402D02*
D03*
X303402D02*
D03*
X311402D02*
D03*
X315402D02*
D03*
X295402Y399986D02*
D03*
X299402D02*
D03*
X303402D02*
D03*
X307402D02*
D03*
X311402D02*
D03*
X315402D02*
D03*
X299402Y395986D02*
D03*
X303402D02*
D03*
X311402D02*
D03*
X295402Y391986D02*
D03*
X299402D02*
D03*
X303402D02*
D03*
X307402D02*
D03*
X315402D02*
D03*
X299402Y387986D02*
D03*
X303402D02*
D03*
X307402D02*
D03*
X311402D02*
D03*
X315402D02*
D03*
X299402Y383986D02*
D03*
X311402D02*
D03*
X315402D02*
D03*
X295402Y395986D02*
D03*
X307402D02*
D03*
X315402D02*
D03*
X307402Y383986D02*
D03*
X295402D02*
D03*
X311402Y391986D02*
D03*
X303402Y383986D02*
D03*
D19*
X255650Y418058D02*
D03*
X265150D02*
D03*
Y408458D02*
D03*
X255550D02*
D03*
D20*
X326756Y371050D02*
D03*
X333756Y374650D02*
D03*
X330256Y371050D02*
D03*
X333756D02*
D03*
X326756Y374650D02*
D03*
X330256D02*
D03*
D21*
X246667Y372952D02*
D03*
X252936D02*
D03*
D22*
X262382Y371856D02*
D03*
Y378256D02*
D03*
D23*
X272710Y360934D02*
D03*
X268310D02*
D03*
D24*
X283464Y371348D02*
D03*
X278892Y418008D02*
D03*
X283464Y380848D02*
D03*
X278892Y408508D02*
D03*
D25*
X245000Y386080D02*
D03*
X280416Y390398D02*
D03*
X303022Y371856D02*
D03*
X297722D02*
D03*
X285716Y390398D02*
D03*
X250300Y386080D02*
D03*
D26*
X267973Y386842D02*
D03*
X262887D02*
D03*
D27*
X293522Y416306D02*
D03*
X334010Y416560D02*
D03*
X324010D02*
D03*
X303522Y416306D02*
D03*
D28*
X314198Y369206D02*
D03*
X326402Y381586D02*
D03*
X314198Y374506D02*
D03*
X326402Y386886D02*
D03*
D29*
X310844Y354076D02*
D03*
X292764Y360329D02*
D03*
X286264D02*
D03*
X304344Y354076D02*
D03*
D30*
X271454Y396494D02*
D03*
X262454D02*
D03*
D31*
X332486Y398272D02*
D03*
X246086D02*
D03*
D32*
X332486Y356472D02*
D03*
X246086D02*
D03*
D33*
X318186Y361772D02*
D03*
X260386D02*
D03*
D34*
X346964Y400558D02*
D03*
X228092Y370586D02*
D03*
Y385420D02*
D03*
Y400710D02*
D03*
Y416001D02*
D03*
Y354838D02*
D03*
X346964Y386334D02*
D03*
Y414782D02*
D03*
X228092Y339547D02*
D03*
D35*
X291426Y407393D02*
D03*
X295759Y410504D02*
D03*
X307340Y381254D02*
D03*
X303275Y410342D02*
D03*
X313795Y378948D02*
D03*
X291592Y391790D02*
D03*
X317766Y419940D02*
D03*
X311797D02*
D03*
X291519Y386456D02*
D03*
X304539Y358438D02*
D03*
X278485Y359219D02*
D03*
X312350Y340360D02*
D03*
X263906Y338074D02*
D03*
X264675Y355847D02*
D03*
D36*
X310901Y392487D02*
D03*
D37*
X315402Y383986D02*
X320718Y378671D01*
Y376737D02*
Y378671D01*
Y376737D02*
X325599Y371856D01*
X325861D01*
X326667Y371050D01*
X326756D01*
X315402Y387986D02*
X315656Y387732D01*
X316063D01*
X328445Y375350D01*
Y372950D02*
Y375350D01*
Y372950D02*
X330256Y371139D01*
Y371050D02*
Y371139D01*
D38*
X297722Y371956D02*
X303402Y377636D01*
X284214Y380848D02*
X293206Y371856D01*
X297722D01*
X303099Y383683D02*
X303402Y383986D01*
Y377636D02*
Y378726D01*
X302768Y379360D02*
X303402Y378726D01*
X303099Y383254D02*
Y383683D01*
X302768Y382923D02*
X303099Y383254D01*
X302768Y379360D02*
Y382923D01*
X340534Y347639D02*
Y365306D01*
X311888Y369440D02*
X313132Y370684D01*
X315431D01*
X335820Y342924D02*
X340534Y347639D01*
X328127Y342924D02*
X335820D01*
X316676Y371929D02*
Y372029D01*
X333756Y371050D02*
X333914D01*
X311888Y359164D02*
X328127Y342924D01*
X311888Y359164D02*
Y369440D01*
X313795Y378948D02*
X314133Y378609D01*
Y374571D02*
X316676Y372029D01*
X333914Y371050D02*
X334944Y370020D01*
X335820D02*
X340534Y365306D01*
X315431Y370684D02*
X316676Y371929D01*
X334944Y370020D02*
X335820D01*
X314133Y374571D02*
Y378609D01*
X310901Y391485D02*
Y391986D01*
Y392487D02*
X311402Y391986D01*
X285716Y385794D02*
Y390298D01*
Y385794D02*
X289625Y381884D01*
X295402Y383873D02*
Y383986D01*
X293413Y381884D02*
X295402Y383873D01*
X289625Y381884D02*
X293413D01*
X293064D02*
X293413D01*
X291519Y386456D02*
X294756D01*
X296286Y387986D01*
X299402D01*
D39*
X315402Y391986D02*
X321202D01*
D40*
X320130Y419940D02*
X323510Y416560D01*
X317766Y419940D02*
X320130D01*
X323510Y416560D02*
X324010D01*
X307656Y419940D02*
X311797D01*
X303522Y416306D02*
X304022D01*
X307656Y419940D01*
D41*
X316789Y412872D02*
X317766Y413849D01*
X315444Y404028D02*
X316789Y405373D01*
X317766Y413849D02*
Y419940D01*
X316789Y405373D02*
Y412872D01*
X311797Y419940D02*
X311849Y419887D01*
Y418122D02*
Y419887D01*
Y418122D02*
X312747Y417225D01*
X311402Y403986D02*
Y406172D01*
X312747Y407518D01*
Y417225D01*
M02*
